Coordinates
version=1
nRows=8
nColumns=34
inDegrees=yes

Units are S.I. units (second, meters, Newtons, ...)
If the header above contains a line with 'inDegrees', this indicates whether rotational values are in degrees (yes) or radians (no).

endheader
time	pelvis_tilt	pelvis_list	pelvis_rotation	pelvis_tx	pelvis_ty	pelvis_tz	hip_flexion_l	hip_adduction_l	hip_rotation_l	hip_flexion_r	hip_adduction_r	hip_rotation_r	knee_angle_l_beta	knee_angle_r_beta	knee_angle_l	knee_angle_r	ankle_angle_l	ankle_angle_r	subtalar_angle_l	subtalar_angle_r	mtp_angle_l	mtp_angle_r	lumbar_ext	lumbar_bend	lumbar_rota	shoulder_flexion_r	shoulder_adduction_r	shoulder_rotation_r	elbow_flexion_r	shoulder_flexion_l	shoulder_adduction_l	shoulder_rotation_l	elbow_flexion_l
      0.63000000	     46.12423170	      8.19290717	     -4.02330703	     -0.60744603	      1.08566342	      0.30162631	    -32.89346632	     10.22225973	     -3.39078366	    -64.81078376	     -2.80370344	    -14.09622608	     -0.07281514	     -0.05381963	      4.17200014	      3.08363776	      2.46922015	     12.80363866	      7.39091608	      5.54051505	    -25.36844584	    -19.54660531	    -61.59124501	    -11.54991253	      1.70888254	      6.34840640	    -10.12373329	      8.91953890	     29.78480059	      4.35146133	    -10.17836730	     10.89378981	     24.27817256
      0.64000000	     46.07633777	      8.24449456	     -4.23094245	     -0.59639366	      1.08420739	      0.30161518	    -33.07248014	     10.53044460	     -3.43019882	    -65.03365025	     -3.04190804	    -15.18451190	     -0.07421191	     -0.04086229	      4.25202921	      2.34123689	      2.48514007	     13.45595482	      6.89574760	      7.15895348	    -25.89474874	    -19.24146975	    -61.48279804	    -11.76658984	      1.87691523	      6.28076735	    -10.09082010	      8.73519100	     29.78520261	      4.30551344	    -10.23444610	     11.24129850	     24.07050155
      0.65000000	     46.08363547	      8.17106449	     -4.37659065	     -0.58545995	      1.08293910	      0.30139212	    -33.29637704	     10.67491204	     -3.53326594	    -65.32209435	     -3.16156605	    -15.48190985	     -0.07151190	     -0.02862089	      4.09733012	      1.63985598	      2.51208148	     13.53139120	      6.76302703	      7.20397167	    -25.93372821	    -19.17853168	    -61.43983719	    -11.83217652	      2.00534926	      6.31791312	    -10.06594199	      8.68857108	     29.70367164	      4.16734647	    -10.24913151	     11.29237714	     23.96596493
      0.66000000	     46.13153608	      8.10270378	     -4.68583937	     -0.57444921	      1.08179414	      0.30133123	    -33.56077762	     10.90172504	     -3.74798521	    -65.59558994	     -3.47361080	    -15.81756863	     -0.06599767	     -0.01396451	      3.78138793	      0.80010738	      2.26412491	     13.86085472	      6.55653227	      7.73210549	    -25.99859572	    -19.06576968	    -61.41727599	    -12.02727683	      2.22844900	      6.32456736	    -10.05434554	      8.63388853	     29.59531337	      4.07860359	    -10.24884410	     11.42305768	     23.82286347
      0.67000000	     46.14219125	      8.23677046	     -5.17003108	     -0.56254128	      1.08053004	      0.30149033	    -33.91327430	     11.40163237	     -3.86767029	    -65.88226090	     -4.10117384	    -17.01736425	     -0.06211965	      0.00114616	      3.55919358	     -0.06567007	      1.74346153	     14.60242556	      6.21345548	     10.12466383	    -26.06308290	    -18.85112169	    -61.22450170	    -12.51356102	      2.48978035	      6.12144443	    -10.02592220	      8.48136935	     29.55681864	      3.99795406	    -10.27817802	     11.99181808	     23.52244440
      0.68000000	     46.20397045	      8.27982928	     -5.52268615	     -0.55094641	      1.07960805	      0.30138265	    -34.29401114	     11.72906234	     -3.86181320	    -66.17556750	     -4.57202183	    -17.63296210	     -0.05548461	      0.01702623	      3.17903417	     -0.97553117	      1.16051962	     14.76365069	      5.94733033	     11.14292768	    -25.99717644	    -18.73453542	    -61.14267955	    -12.81169818	      2.63040682	      6.03719233	     -9.96765887	      8.37091812	     29.46616520	      3.88207156	    -10.30730243	     12.31464766	     23.33062827
      0.69000000	     46.25375673	      8.20315413	     -5.75643471	     -0.53927206	      1.07893608	      0.30106334	    -34.70428987	     11.86285285	     -3.71901210	    -66.45084269	     -4.88452174	    -17.77338317	     -0.04807669	      0.03261044	      2.75459142	     -1.86844083	      0.77887401	     14.36388365	      5.94499105	     11.32487903	    -25.98200186	    -18.72640862	    -61.04471049	    -12.93070352	      2.77679558	      5.96575398	     -9.91546329	      8.35385351	     29.35111729	      3.70555550	    -10.32466961	     12.37186835	     23.21880127
      0.70000000	     46.41534875	      8.41557113	     -6.32555010	     -0.52707137	      1.07840735	      0.30108380	    -35.35083779	     12.46525275	     -3.58616483	    -66.76700887	     -5.73952611	    -18.85371873	     -0.04559302	      0.05296801	      2.61228736	     -3.03484361	     -0.39064296	     14.53655802	      5.15924708	     13.35233981	    -25.76193983	    -18.55775872	    -60.95657334	    -13.50959799	      2.91998541	      5.74516281	     -9.86315479	      8.24449706	     29.25851383	      3.62086425	    -10.33559653	     12.96259608	     22.90673671
